<svg width="80" height="80" viewBox="0 0 80 80" fill="none" xmlns="http://www.w3.org/2000/svg">
<circle cx="40" cy="40" r="40" fill="#4A95B2"/>
<path d="M9.176 53V50.668H9.704C10.232 50.668 10.7013 50.58 11.112 50.404C11.5227 50.228 11.8893 49.92 12.212 49.48C12.564 49.0107 12.9013 48.336 13.224 47.456L22.772 21.584H28.8L37.996 47.5C38.2893 48.3213 38.5973 48.9667 38.92 49.436C39.272 49.876 39.6387 50.1987 40.02 50.404C40.4307 50.58 40.8707 50.668 41.34 50.668H42.132V53H27.612V50.668H29.328C29.768 50.668 30.1933 50.536 30.604 50.272C31.0147 50.008 31.22 49.568 31.22 48.952C31.22 48.7173 31.1907 48.4827 31.132 48.248C31.1027 48.0133 31.0587 47.7933 31 47.588C30.9413 47.3827 30.8827 47.2067 30.824 47.06L29.284 42.66H18.592L17.316 46.444C17.2573 46.6787 17.184 46.9427 17.096 47.236C17.008 47.5293 16.9347 47.8373 16.876 48.16C16.8173 48.4533 16.788 48.7173 16.788 48.952C16.788 49.5093 16.9933 49.9347 17.404 50.228C17.8147 50.5213 18.2693 50.668 18.768 50.668H20.616V53H9.176ZM19.516 39.976H28.404L26.072 32.76C25.8667 32.0853 25.6467 31.3667 25.412 30.604C25.1773 29.812 24.9573 29.02 24.752 28.228C24.5467 27.436 24.356 26.7027 24.18 26.028C24.0627 26.4973 23.916 27.0107 23.74 27.568C23.564 28.096 23.388 28.6533 23.212 29.24C23.036 29.7973 22.8453 30.3693 22.64 30.956C22.464 31.5133 22.288 32.0413 22.112 32.54L19.516 39.976ZM43.3609 53V50.668H45.2089C45.6196 50.668 45.9862 50.6093 46.3089 50.492C46.6609 50.3747 46.9396 50.1253 47.1449 49.744C47.3502 49.3627 47.4529 48.7907 47.4529 48.028V26.6C47.4529 25.808 47.3502 25.2213 47.1449 24.84C46.9396 24.4587 46.6609 24.2093 46.3089 24.092C45.9862 23.9747 45.6196 23.916 45.2089 23.916H43.3609V21.584H67.7369L67.9569 29.68H64.8769L64.6569 27.568C64.5689 26.776 64.3782 26.1453 64.0849 25.676C63.8209 25.1773 63.4542 24.8253 62.9849 24.62C62.5449 24.3853 62.0169 24.268 61.4009 24.268H54.4049V36.28H64.8329V38.876H54.4049V47.808C54.4049 48.6293 54.5076 49.2453 54.7129 49.656C54.9182 50.0667 55.1969 50.3453 55.5489 50.492C55.9009 50.6093 56.2822 50.668 56.6929 50.668H59.4209V53H43.3609Z" fill="white"/>
</svg>
