<svg viewBox="-5 -5 50 50" xmlns="http://www.w3.org/2000/svg"> 
<title>RSS</title>
<path fill-rule="evenodd" clip-rule="evenodd" d="M0 8V0C5.25287 0 10.4543 1.03463 15.3073 3.04482C20.1604 5.05501 24.5699 8.00139 28.2843 11.7157C31.9986 15.4301 34.945 19.8396 36.9552 24.6927C38.9654 29.5457 40 34.7471 40 40H32C32 31.5131 28.6286 23.3737 22.6274 17.3726C16.6263 11.3714 8.48693 8 0 8ZM0 16V24C4.24346 24 8.31313 25.6857 11.3137 28.6863C14.3143 31.6869 16 35.7565 16 40H24C24 33.6348 21.4714 27.5303 16.9706 23.0294C12.4697 18.5286 6.3652 16 0 16ZM4 40C6.20914 40 8 38.2091 8 36C8 33.7909 6.20914 32 4 32C1.79086 32 0 33.7909 0 36C0 38.2091 1.79086 40 4 40Z"/>
</svg>
