<!-- <svg viewBox="0 0 117 94" xmlns="http://www.w3.org/2000/svg"> -->
<svg viewBox="-5 -5 50 50" xmlns="http://www.w3.org/2000/svg">
 <title>RSS</title>
<path d="M4 40C6.20914 40 8 38.2091 8 36C8 33.7909 6.20914 32 4 32C1.79086 32 0 33.7909 0 36C0 38.2091 1.79086 40 4 40ZM0 16V24C4.24346 24 8.31313 25.6857 11.3137 28.6863C14.3143 31.6869 16 35.7565 16 40H24C24 33.6348 21.4714 27.5303 16.9706 23.0294C12.4697 18.5286 6.3652 16 0 16ZM0 0V8C8.48693 8 16.6263 11.3714 22.6274 17.3726C28.6286 23.3737 32 31.5131 32 40H40C40 34.7471 38.9654 29.5457 36.9552 24.6927C34.945 19.8396 31.9986 15.4301 28.2843 11.7157C24.5699 8.00139 20.1604 5.05501 15.3073 3.04482C10.4543 1.03463 5.25287 0 0 0Z"/>
</svg>
