<svg xmlns="http://www.w3.org/2000/svg" viewBox="0 0 100 100"><title>Slideshare</title><path d="M77.31,64.74c10.82,36.54-26.59,42.33-26,23.6V70.53a21.36,21.36,0,0,1-2.63-.61V88.34c.62,18.73-36.8,12.94-26-23.6C12.54,60.63,5.73,55.3,2.18,51c-1.7-2.59.15-5.33,3.09-3.35a4.7,4.7,0,0,1,1.08.76V10.69a9.24,9.24,0,0,1,9-9.44H84.74a9.24,9.24,0,0,1,9,9.44V48.45a5.44,5.44,0,0,1,1.24-.76c2.94-2,4.79.76,3.09,3.35-3.71,4.26-10.51,9.59-20.72,13.7ZM88.91,15c0-6.24-2-8.68-7.88-8.68H19.49c-6.18,0-7.88,2.13-7.88,8.68V51.5C24.75,58.2,35.88,57,42.06,56.83c2.63,0,4.33.46,5.26,1.52a2.13,2.13,0,0,0,.62.46c1.24,1.07,2.32,2,3.4,2.74.15-3,1.86-4.87,6.49-4.72,6.18.3,17.78,1.52,31.08-5.63V15ZM36.81,52.41c-6.65,0-11.9-5-11.9-11,0-6.09,5.41-11,11.9-11s11.9,4.87,11.9,11-5.41,11-11.9,11Zm27.67,0c-6.65,0-11.9-5-11.9-11,0-6.09,5.41-11,11.9-11,6.65,0,11.9,4.87,11.9,11s-5.26,11-11.9,11Z" /></svg>