<svg xmlns="http://www.w3.org/2000/svg" viewBox="0 0 100 100"><title>Twitter</title><path d="M87.47,41.23V43.7c0,25.14-19.06,53.89-53.89,53.89A53.43,53.43,0,0,1,4.5,89a41.54,41.54,0,0,0,4.6.16A37.64,37.64,0,0,0,32.6,81.16,19,19,0,0,1,14.85,68a24.61,24.61,0,0,0,3.61.33,16.24,16.24,0,0,0,4.93-.66A19,19,0,0,1,8.11,49.12V49a18.5,18.5,0,0,0,8.54,2.46,18.88,18.88,0,0,1-5.75-25.3A54,54,0,0,0,50,46a20.07,20.07,0,0,1-.49-4.27A19.06,19.06,0,0,1,82.38,28.42a37.88,37.88,0,0,0,12-4.6A19.69,19.69,0,0,1,86,34.33a35.19,35.19,0,0,0,11-3,38.84,38.84,0,0,1-9.53,9.86Z"/></svg>