<svg xmlns="http://www.w3.org/2000/svg" viewBox="0 0 100 100"><title>Github</title><path d="M50,2.69A48.52,48.52,0,0,0,34.65,97.23c2.46.44,3.35-1.07,3.35-2.34s-.06-5-.06-9c0,0-13.51,2.9-16.36-5.75,0,0-2.21-5.62-5.37-7.07,0,0-4.42-3,.32-3a10.17,10.17,0,0,1,7.45,5c4.23,7.45,11.3,5.3,14.08,4a10.49,10.49,0,0,1,3.09-6.5c-10.8-1.2-22.1-5.37-22.1-23.93a18.67,18.67,0,0,1,5-13c-.51-1.26-2.15-6.19.44-12.88,4.1-1.26,13.39,5,13.39,5a45.59,45.59,0,0,1,24.25,0s9.28-6.25,13.32-5c2.65,6.69,1,11.62.51,12.88a18.67,18.67,0,0,1,5,13c0,18.63-11.37,22.73-22.17,23.93,1.77,1.52,3.28,4.42,3.28,9V94.89c0,1.26.82,2.78,3.28,2.34A48.52,48.52,0,0,0,50,2.69Z" /></svg>